<svg width="256" height="256" viewBox="0 0 256 256" fill="none" xmlns="http://www.w3.org/2000/svg">
<path d="M128 256C198.692 256 256 198.692 256 128C256 57.3076 198.692 0 128 0C57.3076 0 0 57.3076 0 128C0 198.692 57.3076 256 128 256Z" fill="url(#paint0_radial_12467_1066)"/>
<path d="M128 29C182.676 29 227 73.3238 227 128C227 182.676 182.676 227 128 227C73.3238 227 29 182.676 29 128C29 73.3238 73.3238 29 128 29Z" fill="url(#paint1_radial_12467_1066)" stroke="#2C2C2C" stroke-width="2"/>
<path fill-rule="evenodd" clip-rule="evenodd" d="M201.663 120.784C201.652 81.3142 171.764 48 126.111 48C88.2451 49.3703 55.9552 77.4679 55.9305 122.701L88.6944 155.095L54 189.194C54.8914 190.155 55.8025 191.1 56.7328 192.028C57.4017 192.695 58.0792 193.353 58.7651 194H199.328C200.935 192.482 202.493 190.911 204 189.29L183.132 169.334C194.275 156.892 201.669 141.076 201.663 120.784ZM92.57 158.927L121.064 187.1H63.9621L92.57 158.927ZM64.0568 122.701L129.693 187.1H192.612L128.881 123.169L64.0568 122.701ZM126.111 54.1308C91.4563 55.251 63.5061 82.8587 61.8994 117.337H126.111V54.1308ZM194.782 120.474C194.782 137.305 188.527 152.662 178.192 164.36L132.613 118.476V54.2328C167.323 56.4513 194.782 85.2623 194.782 120.474Z" fill="#F9F9F9"/>
<defs>
<radialGradient id="paint0_radial_12467_1066" cx="0" cy="0" r="1" gradientUnits="userSpaceOnUse" gradientTransform="translate(183 231) rotate(-119.306) scale(243.115)">
<stop stop-color="#151515"/>
<stop offset="1" stop-color="#3F3F3F"/>
</radialGradient>
<radialGradient id="paint1_radial_12467_1066" cx="0" cy="0" r="1" gradientUnits="userSpaceOnUse" gradientTransform="translate(122.5 114) rotate(57.2648) scale(99.8599)">
<stop offset="0.331542" stop-color="#3C3C3C"/>
<stop offset="1" stop-color="#1E1E1E"/>
</radialGradient>
</defs>
</svg>
