<svg width="256" height="256" viewBox="0 0 256 256" fill="none" xmlns="http://www.w3.org/2000/svg">
<path d="M128 256C198.692 256 256 198.692 256 128C256 57.3075 198.692 0 128 0C57.3075 0 0 57.3075 0 128C0 198.692 57.3075 256 128 256Z" fill="white"/>
<path fill-rule="evenodd" clip-rule="evenodd" d="M135.192 140.949C144.42 140.704 153.617 139.789 162.711 138.213C163.366 138.095 164.039 138.121 164.683 138.291C165.327 138.46 165.925 138.768 166.436 139.193C166.947 139.618 167.358 140.15 167.639 140.75C167.921 141.351 168.067 142.005 168.067 142.668V159.823C155.01 162.468 141.716 163.773 128.392 163.717C97.0321 163.717 69.5838 156.946 54.3973 146.808C49.573 143.917 45.6745 139.719 43.1572 134.705C42.2452 132.747 41.7646 130.618 41.7477 128.46C41.8191 125.138 42.8868 121.913 44.8133 119.199C44.9734 118.951 45.1874 118.742 45.4395 118.588C45.6917 118.434 45.9754 118.338 46.2698 118.308C46.5642 118.277 46.8616 118.313 47.1401 118.413C47.4186 118.513 47.6711 118.673 47.8788 118.883C49.5681 120.552 51.3949 122.078 53.3402 123.444C61.9627 129.063 71.5009 133.146 81.5286 135.512C94.6686 138.84 108.142 140.688 121.697 141.02V149.509C121.697 150.389 121.871 151.26 122.209 152.073C122.547 152.886 123.043 153.625 123.668 154.247C124.293 154.869 125.035 155.363 125.851 155.7C126.668 156.036 127.543 156.21 128.427 156.21C130.209 156.2 131.915 155.492 133.176 154.237C134.436 152.982 135.148 151.283 135.157 149.509L135.192 140.949Z" fill="#C4C4C4"/>
<path fill-rule="evenodd" clip-rule="evenodd" d="M135.192 140.949C144.42 140.704 153.617 139.789 162.711 138.213C163.366 138.095 164.039 138.121 164.683 138.291C165.327 138.46 165.925 138.768 166.436 139.193C166.947 139.618 167.358 140.15 167.639 140.75C167.921 141.351 168.067 142.005 168.067 142.668V159.823C155.01 162.468 141.716 163.773 128.392 163.717C97.0321 163.717 69.5838 156.946 54.3973 146.808C49.573 143.917 45.6745 139.719 43.1572 134.705C42.2452 132.747 41.7646 130.618 41.7477 128.46C41.8191 125.138 42.8868 121.913 44.8133 119.199C44.9734 118.951 45.1874 118.742 45.4395 118.588C45.6917 118.434 45.9754 118.338 46.2698 118.308C46.5642 118.277 46.8616 118.313 47.1401 118.413C47.4186 118.513 47.6711 118.673 47.8788 118.883C49.5681 120.552 51.3949 122.078 53.3402 123.444C61.9627 129.063 71.5009 133.146 81.5286 135.512C94.6686 138.84 108.142 140.688 121.697 141.02V149.509C121.697 150.389 121.871 151.26 122.209 152.073C122.547 152.886 123.043 153.625 123.668 154.247C124.293 154.869 125.035 155.363 125.851 155.7C126.668 156.036 127.543 156.21 128.427 156.21C130.209 156.2 131.915 155.492 133.176 154.237C134.436 152.982 135.148 151.283 135.157 149.509L135.192 140.949Z" fill="#FF7900"/>
<path fill-rule="evenodd" clip-rule="evenodd" d="M215 128.249C214.996 130.458 214.502 132.638 213.555 134.634C211.008 139.581 207.129 143.723 202.35 146.597C195.849 150.714 188.805 153.914 181.42 156.104V136.739C181.412 135.8 181.701 134.882 182.244 134.114C182.788 133.346 183.559 132.768 184.45 132.459C191.145 130.269 197.501 127.164 203.337 123.233C205.312 121.864 207.163 120.327 208.869 118.637C209.076 118.427 209.329 118.266 209.607 118.167C209.886 118.067 210.183 118.031 210.478 118.062C210.772 118.092 211.056 118.188 211.308 118.342C211.56 118.496 211.774 118.705 211.934 118.953C213.883 121.668 214.953 124.912 215 128.249Z" fill="#FF7900"/>
<path fill-rule="evenodd" clip-rule="evenodd" d="M215 164.278C214.988 166.475 214.495 168.641 213.555 170.628C211.009 175.574 207.129 179.717 202.35 182.591C187.094 192.729 159.645 199.5 128.356 199.5C97.0667 199.5 69.548 192.729 54.3615 182.591C49.5372 179.7 45.6386 175.502 43.1214 170.488C42.2102 168.542 41.7295 166.425 41.712 164.278C41.7786 160.944 42.8462 157.706 44.7775 154.982C44.9375 154.734 45.1516 154.525 45.4037 154.371C45.6558 154.217 45.9396 154.121 46.234 154.09C46.5283 154.06 46.8258 154.096 47.1043 154.196C47.3828 154.296 47.6353 154.456 47.8429 154.666C49.5246 156.344 51.3522 157.87 53.3044 159.227C61.919 164.86 71.4598 168.945 81.4927 171.295C96.8021 175.12 112.537 176.994 128.321 176.873C141.645 176.93 154.939 175.625 167.996 172.979V179.995C167.991 180.876 168.162 181.75 168.499 182.564C168.835 183.379 169.331 184.12 169.957 184.743C170.582 185.366 171.326 185.86 172.145 186.195C172.963 186.53 173.841 186.7 174.726 186.695C175.61 186.695 176.485 186.522 177.301 186.185C178.118 185.849 178.86 185.355 179.485 184.733C180.11 184.111 180.605 183.372 180.943 182.559C181.282 181.746 181.456 180.875 181.456 179.995V169.471C189.229 167.196 196.607 163.753 203.337 159.262C205.328 157.915 207.181 156.376 208.869 154.666C209.08 154.456 209.335 154.295 209.616 154.195C209.898 154.095 210.198 154.059 210.495 154.09C210.792 154.12 211.078 154.216 211.333 154.37C211.589 154.524 211.806 154.733 211.97 154.982C213.892 157.709 214.948 160.947 215 164.278Z" fill="#C4C4C4"/>
<path fill-rule="evenodd" clip-rule="evenodd" d="M215 164.278C214.988 166.475 214.495 168.641 213.555 170.628C211.009 175.574 207.129 179.717 202.35 182.591C187.094 192.729 159.645 199.5 128.356 199.5C97.0667 199.5 69.548 192.729 54.3615 182.591C49.5372 179.7 45.6386 175.502 43.1214 170.488C42.2102 168.542 41.7295 166.425 41.712 164.278C41.7786 160.944 42.8462 157.706 44.7775 154.982C44.9375 154.734 45.1516 154.525 45.4037 154.371C45.6558 154.217 45.9396 154.121 46.234 154.09C46.5283 154.06 46.8258 154.096 47.1043 154.196C47.3828 154.296 47.6353 154.456 47.8429 154.666C49.5246 156.344 51.3522 157.87 53.3044 159.227C61.919 164.86 71.4598 168.945 81.4927 171.295C96.8021 175.12 112.537 176.994 128.321 176.873C141.645 176.93 154.939 175.625 167.996 172.979V179.995C167.991 180.876 168.162 181.75 168.499 182.564C168.835 183.379 169.331 184.12 169.957 184.743C170.582 185.366 171.326 185.86 172.145 186.195C172.963 186.53 173.841 186.7 174.726 186.695C175.61 186.695 176.485 186.522 177.301 186.185C178.118 185.849 178.86 185.355 179.485 184.733C180.11 184.111 180.605 183.372 180.943 182.559C181.282 181.746 181.456 180.875 181.456 179.995V169.471C189.229 167.196 196.607 163.753 203.337 159.262C205.328 157.915 207.181 156.376 208.869 154.666C209.08 154.456 209.335 154.295 209.616 154.195C209.898 154.095 210.198 154.059 210.495 154.09C210.792 154.12 211.078 154.216 211.333 154.37C211.589 154.524 211.806 154.733 211.97 154.982C213.892 157.709 214.948 160.947 215 164.278Z" fill="#FF7900"/>
<path fill-rule="evenodd" clip-rule="evenodd" d="M214.999 92.2567C214.984 94.55 214.467 96.8126 213.484 98.8871C211.034 103.532 207.385 107.443 202.913 110.218C199.217 112.697 195.288 114.812 191.18 116.533C173.279 123.489 154.265 127.173 135.05 127.408V117.971C135.048 115.283 135.851 112.655 137.358 110.424C138.864 108.192 141.005 106.46 143.506 105.447L152.809 101.659C160.737 98.7816 165.775 94.4667 165.775 89.6958C165.775 80.9605 149.003 73.8741 128.32 73.8741C107.637 73.8741 90.8649 80.8903 90.8649 89.6958C90.8649 94.4667 95.9036 98.7816 103.832 101.659L113.169 105.447C115.667 106.464 117.806 108.197 119.312 110.428C120.818 112.658 121.623 115.284 121.625 117.971V127.408C102.325 127.2 83.2223 123.503 65.2486 116.498C61.1688 114.78 57.2634 112.677 53.5857 110.218C49.1194 107.436 45.4724 103.527 43.0151 98.8871C42.0323 96.8126 41.5153 94.55 41.5 92.2567C41.5 72.7865 80.2589 57 128.144 57C176.029 57 214.999 72.7865 214.999 92.2567Z" fill="#C4C4C4"/>
<path fill-rule="evenodd" clip-rule="evenodd" d="M214.999 92.2567C214.984 94.55 214.467 96.8126 213.484 98.8871C211.034 103.532 207.385 107.443 202.913 110.218C199.217 112.697 195.288 114.812 191.18 116.533C173.279 123.489 154.265 127.173 135.05 127.408V117.971C135.048 115.283 135.851 112.655 137.358 110.424C138.864 108.192 141.005 106.46 143.506 105.447L152.809 101.659C160.737 98.7816 165.775 94.4667 165.775 89.6958C165.775 80.9605 149.003 73.8741 128.32 73.8741C107.637 73.8741 90.8649 80.8903 90.8649 89.6958C90.8649 94.4667 95.9036 98.7816 103.832 101.659L113.169 105.447C115.667 106.464 117.806 108.197 119.312 110.428C120.818 112.658 121.623 115.284 121.625 117.971V127.408C102.325 127.2 83.2223 123.503 65.2486 116.498C61.1688 114.78 57.2634 112.677 53.5857 110.218C49.1194 107.436 45.4724 103.527 43.0151 98.8871C42.0323 96.8126 41.5153 94.55 41.5 92.2567C41.5 72.7865 80.2589 57 128.144 57C176.029 57 214.999 72.7865 214.999 92.2567Z" fill="#FF7900"/>
</svg>
