<svg width="256" height="256" viewBox="0 0 256 256" fill="none" xmlns="http://www.w3.org/2000/svg">
<path fill-rule="evenodd" clip-rule="evenodd" d="M194.764 103.439C204.196 94.006 206.03 79.8518 200.264 68.5835C198.873 65.8646 197.04 63.3137 194.764 61.0377C192.488 58.7618 189.937 56.9282 187.218 55.5371C175.95 49.7715 161.795 51.6051 152.363 61.0378C140.654 72.7465 140.654 91.73 152.363 103.439C164.071 115.147 183.055 115.147 194.764 103.439ZM185.522 94.1975C189.705 90.0149 191.239 84.1866 190.124 78.7969C190.12 78.7767 190.116 78.7565 190.111 78.7363C189.459 75.637 187.929 72.6856 185.522 70.279C183.131 67.888 180.203 66.3626 177.126 65.7027C177.105 65.6983 177.065 65.6898 177.065 65.6898C171.658 64.551 165.802 66.0807 161.604 70.279C157.406 74.4773 155.876 80.3336 157.015 85.7402C157.019 85.7603 157.023 85.7805 157.028 85.8007C157.687 88.8778 159.213 91.8065 161.604 94.1974C164.01 96.6041 166.962 98.1338 170.061 98.7866C170.081 98.7909 170.102 98.7951 170.122 98.7993C175.511 99.914 181.34 98.38 185.522 94.1975Z" fill="black"/>
<path fill-rule="evenodd" clip-rule="evenodd" d="M103.438 194.764C112.871 185.331 114.705 171.177 108.939 159.909C107.548 157.19 105.714 154.639 103.438 152.363C101.163 150.087 98.6116 148.253 95.8928 146.862C84.6245 141.097 70.4703 142.93 61.0376 152.363C49.3289 164.072 49.3289 183.055 61.0376 194.764C72.7463 206.472 91.7298 206.472 103.438 194.764ZM94.1973 185.523C98.3798 181.34 99.9138 175.512 98.7991 170.122C98.7949 170.102 98.7907 170.082 98.7864 170.061C98.1336 166.962 96.6039 164.011 94.1973 161.604C91.8063 159.213 88.8776 157.688 85.8005 157.028C85.7803 157.023 85.7602 157.019 85.74 157.015C80.3334 155.876 74.4771 157.406 70.2788 161.604C66.0805 165.802 64.5508 171.659 65.6896 177.065C65.6939 177.085 65.6982 177.106 65.7025 177.126C66.3624 180.203 67.8878 183.132 70.2788 185.523C72.6854 187.929 75.6368 189.459 78.7361 190.112C78.7563 190.116 78.7765 190.12 78.7967 190.124C84.1864 191.239 90.0147 189.705 94.1973 185.523Z" fill="black"/>
<path fill-rule="evenodd" clip-rule="evenodd" d="M190.111 78.7363C189.459 75.637 187.929 72.6856 185.522 70.279C183.131 67.888 180.203 66.3626 177.126 65.7027L177.065 65.6898L206.179 36.5757C209.782 32.973 215.623 32.973 219.226 36.5757C222.828 40.1784 222.828 46.0195 219.226 49.6222L170.061 98.7866L190.111 78.7363ZM78.7361 190.112C75.6368 189.459 72.6854 187.929 70.2788 185.523C67.8878 183.132 66.3624 180.203 65.7025 177.126L65.6896 177.065L36.5755 206.179C32.9728 209.782 32.9728 215.623 36.5755 219.226C40.1781 222.829 46.0192 222.829 49.6219 219.226L78.7361 190.112ZM85.74 157.015L85.8005 157.028C88.8776 157.688 91.8063 159.213 94.1973 161.604C96.6039 164.011 98.1336 166.962 98.7864 170.061L78.7361 190.112L170.061 98.7866C166.962 98.1338 164.01 96.6041 161.604 94.1974C159.213 91.8065 157.687 88.8778 157.028 85.8007L157.015 85.7402L85.74 157.015Z" fill="black"/>
</svg>
