<svg width="256" height="256" viewBox="0 0 256 256" fill="none" xmlns="http://www.w3.org/2000/svg">
<path d="M128 98C120.044 98 112.413 101.161 106.787 106.787C101.161 112.413 98 120.044 98 128C98 135.956 101.161 143.587 106.787 149.213C112.413 154.839 120.044 158 128 158C135.956 158 143.587 154.839 149.213 149.213C154.839 143.587 158 135.956 158 128C158 120.044 154.839 112.413 149.213 106.787C143.587 101.161 135.956 98 128 98Z" fill="black"/>
<path fill-rule="evenodd" clip-rule="evenodd" d="M106.787 106.787C112.413 101.161 120.044 98 128 98C135.956 98 143.587 101.161 149.213 106.787C154.839 112.413 158 120.044 158 128C158 135.956 154.839 143.587 149.213 149.213C143.587 154.839 135.956 158 128 158C120.044 158 112.413 154.839 106.787 149.213C101.161 143.587 98 135.956 98 128C98 120.044 101.161 112.413 106.787 106.787Z" fill="black"/>
<path fill-rule="evenodd" clip-rule="evenodd" d="M170 28H86C70.7761 28.4995 56.312 34.7706 45.5413 45.5413C34.7706 56.312 28.4995 70.7761 28 86V170C28.4995 185.224 34.7706 199.688 45.5413 210.459C56.312 221.229 70.7761 227.5 86 228H170C185.224 227.5 199.688 221.229 210.459 210.459C221.229 199.688 227.5 185.224 228 170V86C228 54 202 28 170 28ZM128 78C141.261 78 153.979 83.2678 163.355 92.6447C172.732 102.021 178 114.739 178 128C178 141.261 172.732 153.979 163.355 163.355C153.979 172.732 141.261 178 128 178C114.739 178 102.021 172.732 92.6447 163.355C83.2678 153.979 78 141.261 78 128C78 114.739 83.2678 102.021 92.6447 92.6447C102.021 83.2678 114.739 78 128 78ZM192.553 60.1438C190.327 57.7327 187.272 56.2524 184 56C180.552 56 177.246 57.3696 174.808 59.8076C172.37 62.2456 171 65.5522 171 69C171.252 72.2716 172.733 75.3268 175.144 77.5525C177.555 79.7782 180.719 81.0097 184 81C187.106 80.769 190.026 79.4305 192.228 77.2282C194.431 75.0259 195.769 72.106 196 69C196.01 65.7186 194.778 62.555 192.553 60.1438Z" fill="black"/>
</svg>
