<svg width="512" height="512" viewBox="0 0 512 512" fill="none" xmlns="http://www.w3.org/2000/svg">
<path fill-rule="evenodd" clip-rule="evenodd" d="M0 0H512V512H0V0Z" fill="#FDF1EC"/>
<path d="M305.595 191.251L355.541 234.976L359.994 243.453L392.554 260.408C392.554 257.909 404.595 211.329 410.838 188.127C410.124 185.986 394.041 127.001 385.865 98L305.595 191.251Z" fill="#66210B"/>
<path d="M305.595 191.251L385.865 98L280.622 174.742L305.595 191.251Z" fill="#ED6E34"/>
<path d="M113.838 101.123L234.689 192.589L221.757 175.635L113.838 101.123Z" fill="#ED6E34"/>
<path d="M234.689 192.589L264.122 227.837L273.932 251.484L309.608 276.024H335.919L331.459 268.439L326.707 261.746L319.419 251.484L316.743 227.837L305.595 191.251L280.622 174.742L221.757 175.635L234.689 192.589Z" fill="#F19F70"/>
<path d="M96 191.697L119.635 264.424L173.595 247.023L234.689 192.589L113.838 101.123L96 191.697Z" fill="#66210B"/>
<path d="M234.689 192.589L173.595 247.023L185.189 273.793L216.851 236.314L264.122 227.837L234.689 192.589Z" fill="#ED6E34"/>
<path d="M260.108 269.184L309.608 276.024L273.932 251.484L264.122 227.837L216.851 236.314L185.189 273.793L215.068 271.116L227.554 254.608L249.851 250.146L260.108 269.184Z" fill="#E65C2B"/>
<path d="M119.635 264.424L111.162 336.258L227.554 288.963L300.243 286.286L309.608 276.024L260.108 269.184L215.068 271.116L185.189 273.793L173.595 247.023L119.635 264.424Z" fill="#F19F70"/>
<path d="M215.068 271.116L260.108 269.184L249.851 250.146L227.554 254.608L215.068 271.116Z" fill="#66210B"/>
<path d="M355.541 234.976L305.595 191.251L316.743 227.837L355.541 234.976Z" fill="#ED6E34"/>
<path d="M316.743 227.837L319.419 251.484L326.707 261.746L328.784 248.807L346.622 252.377L354.649 268.439L374.27 271.116L359.994 243.453L355.541 234.976L316.743 227.837Z" fill="#E65C2B"/>
<path d="M326.707 261.746L331.459 268.439H354.649L346.622 252.377L328.784 248.807L326.707 261.746Z" fill="#66210B"/>
<path d="M374.27 271.116L354.649 268.439H331.459L335.919 276.024L347.068 285.84H366.689L426 330.458L392.554 260.408L359.994 243.453L374.27 271.116Z" fill="#F19F70"/>
<path d="M309.608 276.024L300.243 286.286L308.716 301.01H344.392L347.068 285.84L335.919 276.024H309.608Z" fill="#66210B"/>
<path d="M223.095 354.551L215.959 380.429L274.824 392.476H305.149L330.568 377.752L361.784 352.32L340.378 343.397L344.392 301.01H308.716L303.365 343.397L223.095 354.551Z" fill="#D3D7E0"/>
<path d="M300.243 286.286L223.095 354.551L303.365 343.397L308.716 301.01L300.243 286.286Z" fill="#FDFFFF"/>
<path d="M223.095 354.551L300.243 286.286L227.554 288.963L223.095 354.551Z" fill="#ED6E34"/>
<path d="M111.162 336.258L135.243 413L215.959 380.429L223.095 354.551L227.554 288.963L111.162 336.258Z" fill="#E65C2B"/>
<path d="M347.068 285.84L361.784 352.32L366.689 285.84H347.068Z" fill="#ED6E34"/>
<path d="M366.689 285.84L361.784 352.32L330.568 377.752L408.162 408.092L426 330.458L366.689 285.84Z" fill="#E65C2B"/>
<path d="M347.068 285.84L344.392 301.01L340.378 343.397L361.784 352.32L347.068 285.84Z" fill="#FDFFFF"/>
</svg>
